<?xml version="1.0" standalone="no"?>
<!DOCTYPE svg PUBLIC "-//W3C//DTD SVG 20010904//EN"
 "http://www.w3.org/TR/2001/REC-SVG-20010904/DTD/svg10.dtd">
<svg version="1.0" xmlns="http://www.w3.org/2000/svg"
 width="995.000000pt" height="468.000000pt" viewBox="0 0 995.000000 468.000000"
 preserveAspectRatio="xMidYMid meet">
<metadata>
Created by potrace 1.15, written by Peter Selinger 2001-2017
</metadata>
<g transform="translate(0.000000,468.000000) scale(0.100000,-0.100000)"
fill="#000000" stroke="none">
<path d="M650 2365 l0 -1675 2225 0 2225 0 0 1675 0 1675 -2225 0 -2225 0 0
-1675z m3155 573 c-443 -446 -805 -803 -828 -815 -48 -27 -129 -31 -184 -8
-24 10 -222 203 -616 603 -320 323 -676 683 -791 800 l-210 212 1708 0 1709 0
-788 -792z m-2281 -3 l558 -565 -418 -426 c-231 -234 -483 -492 -561 -572
l-142 -147 0 1138 c-1 625 0 1137 2 1137 1 0 254 -254 561 -565z m3261 -580
c0 -619 -3 -1124 -6 -1122 -4 1 -255 256 -558 566 l-552 565 558 558 c307 307
558 558 558 558 0 0 0 -506 0 -1125z m-2145 -512 c82 -40 145 -54 240 -54 176
0 259 41 440 218 l135 132 31 -32 c18 -17 267 -273 554 -567 l523 -535 -846
-3 c-466 -1 -1227 -1 -1692 0 l-846 3 560 571 559 571 139 -137 c108 -106 152
-143 203 -167z"/>
<path d="M5170 2355 l0 -1675 260 0 260 0 0 168 1 167 17 -50 c68 -197 219
-289 477 -288 183 0 291 36 441 149 l72 53 22 -58 c12 -33 35 -72 51 -87 l30
-29 165 -3 164 -3 0 65 0 66 63 -35 c173 -95 394 -138 596 -115 175 19 321 78
411 165 l36 35 49 -36 c157 -114 418 -185 625 -169 336 26 552 180 605 432 49
231 -31 405 -234 508 -39 19 -144 60 -233 90 -89 31 -181 67 -205 81 -78 45
-93 122 -35 176 69 65 200 65 360 0 102 -42 165 -52 201 -32 25 13 154 217
146 230 -15 24 -151 111 -218 138 -109 45 -213 64 -357 64 -152 0 -244 -19
-358 -73 -137 -66 -231 -176 -267 -314 -19 -76 -19 -194 0 -270 48 -184 169
-279 475 -375 74 -23 157 -54 184 -68 86 -47 110 -122 60 -182 -35 -41 -71
-58 -136 -66 -80 -9 -161 10 -270 66 -146 75 -211 69 -274 -25 -38 -56 -41
-56 -18 6 25 70 30 223 10 294 -24 83 -78 158 -151 210 -75 54 -114 71 -327
144 -92 32 -183 69 -202 82 -50 34 -71 80 -56 124 35 107 193 125 389 47 114
-46 175 -53 210 -24 21 17 141 199 141 214 0 17 -109 93 -185 129 -147 69
-307 95 -484 78 -342 -32 -546 -225 -552 -522 l-2 -62 -8 61 c-4 34 -19 94
-32 133 -64 182 -181 299 -367 365 -83 30 -89 31 -260 30 -156 -1 -186 -4
-275 -27 -145 -39 -283 -109 -404 -206 l-25 -19 48 -83 c78 -136 108 -159 204
-159 49 0 73 7 152 46 152 74 237 89 337 59 92 -27 143 -117 143 -252 0 -62 0
-63 -27 -63 -67 0 -274 -22 -343 -36 -311 -64 -497 -187 -565 -373 -12 -30
-14 52 -14 535 l-1 572 28 11 c66 26 139 32 497 41 209 6 407 14 440 19 126
19 242 43 298 61 31 11 63 20 70 20 6 1 30 9 52 20 22 11 44 19 48 20 10 0
164 88 192 110 64 48 173 174 205 236 19 38 35 71 36 74 0 3 3 12 7 20 3 8 13
43 21 78 17 69 22 297 7 306 -4 3 -11 23 -15 44 -20 129 -145 294 -297 392
-103 66 -249 128 -369 156 -30 7 -73 17 -95 23 -118 30 -247 35 -937 38 l-708
3 0 -1675z m2010 -740 c58 -121 183 -201 443 -286 212 -68 267 -105 267 -177
0 -76 -59 -126 -162 -138 -78 -9 -159 11 -269 67 -151 77 -214 68 -284 -43
-21 -32 -39 -58 -41 -58 -2 0 -4 177 -3 393 1 331 3 384 13 342 7 -28 23 -73
36 -100z m-540 -365 l0 -110 -52 -41 c-89 -70 -128 -84 -245 -84 -119 0 -149
14 -172 84 -25 77 9 150 88 191 68 34 219 66 334 69 l47 1 0 -110z"/>
</g>
</svg>
